<svg width="202" height="46" viewBox="0 0 202 46" fill="none" xmlns="http://www.w3.org/2000/svg">
    <g clip-path="url(#clip0_901_47)">
        <path d="M23.7236 14.8707C23.7549 15.3552 23.65 15.8388 23.4206 16.2674C23.8261 16.1955 24.1937 15.9854 24.4602 15.6732C24.7267 15.3611 24.8754 14.9664 24.8807 14.5571C24.8519 14.3121 24.7723 14.0758 24.6468 13.8631C24.5214 13.6504 24.3528 13.4658 24.1519 13.3212C23.951 13.1765 23.722 13.0749 23.4795 13.0227C23.237 12.9706 22.9863 12.969 22.7432 13.0181C23.3042 13.482 23.6569 14.1484 23.7236 14.8707Z" fill="white"/>
        <path d="M23.5635 16.9702C24.5439 17.1625 25.8062 17.058 27.4641 16.4391C26.6226 15.8871 27.1738 13.9007 24.7543 12.6211C25.7431 13.6916 26.4122 16.1045 23.5635 16.9702Z" fill="white"/>
        <path d="M40.2645 0H6.02137C4.42441 0 2.89285 0.630474 1.76362 1.75273C0.634393 2.87498 0 4.39708 0 5.98418L0 18.6551C0.610132 15.7989 1.54427 12.8005 3.12219 10.626C3.90488 9.48147 4.8732 8.47392 5.98771 7.64436C9.93884 4.75891 14.984 4.37 18.4554 5.09764C26.6817 6.82891 29.7534 9.522 30.2079 10.5842C26.7448 8.10854 12.6992 5.34854 10.3007 9.12054C8.81536 11.4624 14.6348 16.2296 12.9138 20.6164C11.1044 25.2456 7.02283 22.9958 5.91197 29.1055C4.32983 37.7995 14.8914 36.8 20.7192 46H40.2645C41.8615 46 43.393 45.3695 44.5223 44.2473C45.6515 43.125 46.2859 41.6029 46.2859 40.0158V5.98418C46.2859 4.39708 45.6515 2.87498 44.5223 1.75273C43.393 0.630474 41.8615 0 40.2645 0ZM25.6676 10.9313C28.773 12.1858 27.5191 14.9416 30.7422 17.4047C27.3507 19.4956 23.7236 19.4245 21.8133 18.2411C17.6307 15.6818 18.6574 12.1733 18.0936 10.7347C19.7304 11.5418 23.3113 9.97782 25.6676 10.9313ZM38.6277 23.5269C37.1886 25.7935 30.2962 27.002 29.4925 27.0187C28.3072 27.0236 27.15 27.3788 26.1684 28.0391C25.5582 28.4865 25.4152 29.3438 25.3689 30.3893C25.1921 34.1529 27.7926 41.262 28.3859 42.6211C22.5749 33.9313 17.5971 35.7838 16.9028 28.4782C16.5535 24.7689 19.1034 23.46 20.9633 22.7533C24.4474 26.3873 32.2823 24.1751 33.2248 23.874C32.9035 23.262 32.7164 22.5893 32.6758 21.9002C32.6352 21.2111 32.742 20.5213 32.9892 19.8762C33.444 18.7926 34.2822 17.9119 35.3456 17.4005C36.8983 17.9818 39.6628 18.6049 39.8858 20.0727C40.0583 21.1433 38.8465 23.184 38.6277 23.5269Z" fill="white"/>
        <path d="M75.2859 26.5919C75.4753 27.0394 75.6604 27.4827 75.8414 27.9343C76.0223 27.4701 76.2075 27.0143 76.4052 26.5668C76.603 26.1194 76.805 25.6845 77.0238 25.2747L85.3258 9.83121C85.4127 9.66399 85.5202 9.50808 85.6456 9.36702C85.7476 9.25586 85.8744 9.16994 86.0159 9.11611C86.162 9.0628 86.315 9.03041 86.4703 9.01993C86.6386 9.01993 86.8406 8.99902 87.072 8.99902H91.0105V36.8792H86.4156V18.8723C86.4156 18.5378 86.4156 18.1739 86.4408 17.7725C86.4661 17.371 86.4913 16.9696 86.5292 16.5597L78.0505 32.367C77.8742 32.7044 77.6152 32.992 77.2973 33.2034C76.9714 33.407 76.5922 33.5103 76.2075 33.5003H75.4921C75.1086 33.5109 74.7306 33.4076 74.4065 33.2034C74.0862 32.9936 73.8255 32.7056 73.6491 32.367L65.0526 16.5012C65.1073 16.9194 65.1409 17.3376 65.162 17.7557C65.183 18.1739 65.1914 18.5378 65.1914 18.8848V36.8792H60.5923V8.99902H64.5308C64.7622 8.99902 64.9516 8.99902 65.1325 9.01993C65.2878 9.03041 65.4408 9.0628 65.587 9.11611C65.7298 9.17176 65.859 9.25733 65.9657 9.36702C66.098 9.50442 66.2086 9.66092 66.2939 9.83121L74.6758 25.3039C74.8988 25.7221 75.1008 26.1487 75.2859 26.5919Z" fill="white"/>
        <path d="M121.025 43.3403V17.0994H123.97C124.251 17.0909 124.528 17.1651 124.766 17.3126C124.877 17.3872 124.971 17.4835 125.044 17.5957C125.116 17.7078 125.165 17.8335 125.186 17.965L125.578 19.7966C126.356 18.8938 127.291 18.1374 128.338 17.5635C129.466 16.9818 130.724 16.694 131.995 16.7272C133.026 16.7147 134.046 16.9469 134.97 17.4046C135.889 17.8688 136.687 18.5388 137.301 19.3617C138 20.3114 138.513 21.3841 138.811 22.5232C139.188 23.9277 139.368 25.3771 139.346 26.8305C139.356 28.2251 139.15 29.613 138.736 30.9454C138.373 32.1347 137.791 33.2465 137.019 34.2239C136.29 35.1309 135.369 35.8676 134.322 36.3817C133.219 36.9113 132.007 37.1776 130.783 37.1595C129.804 37.1882 128.829 37.0145 127.922 36.6494C127.138 36.3104 126.424 35.8297 125.818 35.2317V43.3319L121.025 43.3403ZM130.337 20.4908C129.445 20.4642 128.563 20.6811 127.787 21.1181C127.027 21.5825 126.358 22.1805 125.813 22.8828V31.7525C126.276 32.3589 126.885 32.8394 127.585 33.1492C128.239 33.423 128.941 33.5652 129.651 33.5674C130.33 33.5725 131.002 33.4297 131.62 33.1492C132.219 32.8672 132.734 32.4348 133.114 31.8946C133.559 31.2636 133.879 30.5539 134.056 29.8037C134.291 28.8288 134.401 27.8285 134.385 26.8263C134.401 25.8433 134.307 24.8617 134.107 23.899C133.962 23.2024 133.688 22.5387 133.299 21.9419C132.985 21.4696 132.549 21.0897 132.037 20.8421C131.503 20.6021 130.923 20.4822 130.337 20.4908Z" fill="white"/>
        <path d="M147.816 8.22949V24.6389H148.708C148.968 24.6517 149.227 24.6045 149.466 24.5009C149.692 24.375 149.889 24.2042 150.046 23.9991L154.995 17.9271C155.191 17.6886 155.426 17.4837 155.689 17.3208C155.985 17.1611 156.32 17.0845 156.657 17.0991H161.041L154.847 24.4424C154.637 24.7038 154.411 24.9523 154.17 25.1868C153.941 25.411 153.686 25.6088 153.413 25.7764C153.684 25.9652 153.926 26.192 154.132 26.4497C154.338 26.7048 154.553 26.9849 154.751 27.286L161.386 36.9042H157.069C156.741 36.9146 156.416 36.8487 156.118 36.7119C155.831 36.5581 155.59 36.3316 155.42 36.0553L150.37 28.5573C150.233 28.3151 150.03 28.1153 149.785 27.9802C149.508 27.8736 149.211 27.8265 148.914 27.8422H147.829V36.8791H143.023V8.22949H147.816Z" fill="white"/>
        <path d="M179.96 36.8791H177.805C177.44 36.8964 177.075 36.8276 176.741 36.6784C176.592 36.585 176.464 36.4628 176.365 36.3191C176.265 36.1754 176.195 36.0131 176.16 35.842L175.739 34.4327C175.268 34.8572 174.772 35.2538 174.254 35.6204C173.781 35.9463 173.278 36.2264 172.752 36.4567C172.224 36.6919 171.67 36.8659 171.102 36.9753C170.463 37.0977 169.813 37.1566 169.163 37.1509C168.374 37.1586 167.589 37.0443 166.836 36.8122C166.159 36.605 165.534 36.2588 165.001 35.796C164.483 35.3345 164.076 34.7627 163.81 34.1233C163.513 33.3786 163.37 32.5822 163.389 31.7815C163.397 31.0049 163.601 30.2428 163.983 29.5651C164.462 28.753 165.139 28.0741 165.952 27.5913C167.089 26.9175 168.326 26.425 169.617 26.1318C171.481 25.7093 173.39 25.5141 175.302 25.5505V24.4173C175.302 23.0847 175.021 22.0964 174.46 21.4524C174.147 21.1217 173.765 20.864 173.34 20.6977C172.915 20.5314 172.458 20.4606 172.003 20.4905C171.346 20.4739 170.69 20.5658 170.063 20.7624C169.595 20.9188 169.144 21.122 168.716 21.3687C168.334 21.5945 167.98 21.7869 167.66 21.9751C167.334 22.1562 166.965 22.2498 166.592 22.2469C166.291 22.2569 165.995 22.1688 165.75 21.996C165.519 21.8329 165.327 21.6217 165.186 21.3771L164.315 19.8549C166.562 17.7879 169.527 16.6667 172.588 16.7269C173.653 16.7095 174.712 16.9029 175.701 17.2956C176.579 17.6516 177.37 18.1906 178.02 18.8764C178.666 19.5747 179.159 20.3994 179.467 21.2976C179.805 22.2915 179.971 23.3349 179.96 24.3838V36.8791ZM170.648 33.91C171.104 33.9151 171.56 33.8702 172.007 33.7762C172.414 33.6833 172.808 33.5429 173.181 33.358C173.557 33.177 173.914 32.9584 174.246 32.7056C174.615 32.4237 174.962 32.1148 175.285 31.7815V28.4945C174.112 28.4756 172.941 28.5624 171.784 28.7538C171.006 28.8824 170.247 29.1071 169.524 29.4229C169.041 29.6264 168.623 29.9559 168.313 30.3764C168.076 30.7262 167.95 31.1383 167.951 31.5598C167.918 31.8988 167.969 32.2406 168.1 32.5554C168.23 32.8702 168.436 33.1486 168.7 33.3664C169.273 33.7516 169.956 33.9422 170.648 33.91Z" fill="white"/>
        <path d="M202 17.1455V21.3984H195.268V36.9213H190.05V21.3984H183.317V17.1455H202Z" fill="white"/>
        <path d="M112.626 17.0747C112.431 17.0719 112.235 17.0817 112.041 17.104C111.896 17.1205 111.754 17.16 111.62 17.2211C111.488 17.2821 111.367 17.3656 111.263 17.4678C111.124 17.5976 110.994 17.7374 110.876 17.886L101.139 29.7289C101.189 29.2814 101.227 27.5836 101.244 27.1529C101.261 26.7221 101.273 26.3165 101.273 25.9485V17.0747H96.6743V36.8798H99.3715C99.7253 36.8925 100.077 36.8267 100.402 36.6874C100.717 36.5194 100.989 36.282 101.198 35.9932L110.876 24.2423C110.834 24.6605 110.804 26.3332 110.787 26.7263C110.77 27.1194 110.758 27.5 110.758 27.8345V36.8798H115.357V17.0747H112.626Z" fill="white"/>
    </g>
    <defs>
        <clipPath id="clip0_901_47">
            <rect width="202" height="46" fill="white"/>
        </clipPath>
    </defs>
</svg>
